<svg xmlns="http://www.w3.org/2000/svg" width="680" height="482" viewBox="0 0 680 482" font-family="Arial, Helvetica, sans-serif">
<defs>
<marker id="a" markerWidth="9" markerHeight="9" refX="7" refY="3" orient="auto"><path d="M0,0 L7,3 L0,6 z" fill="#7a7f87"/></marker>
<marker id="ah" markerWidth="10" markerHeight="10" refX="7" refY="3" orient="auto"><path d="M0,0 L7,3 L0,6" fill="none" stroke="#7a7f87" stroke-width="1"/></marker>
</defs>
<rect x="0" y="0" width="680" height="482" fill="#ffffff"/>
<text x="40" y="26" font-size="15" font-weight="700" fill="#1f2937">Genius Monkey site linking architecture</text>
<text x="40" y="45" font-size="11" fill="#6b6f76">one representative slice: how pages link to each other and out</text>

<g stroke="#7a7f87" stroke-width="1.6" fill="none">
<line x1="340" y1="112" x2="138" y2="150" marker-end="url(#a)"/>
<line x1="340" y1="112" x2="340" y2="150" marker-end="url(#a)"/>
<line x1="340" y1="112" x2="542" y2="150" marker-end="url(#a)"/>
<line x1="135" y1="194" x2="135" y2="240" marker-end="url(#a)"/>
<line x1="545" y1="194" x2="545" y2="240" marker-end="url(#a)"/>
<line x1="470" y1="172" x2="418" y2="172" marker-end="url(#a)"/>
<line x1="340" y1="194" x2="340" y2="240" stroke-dasharray="5 4" marker-end="url(#a)"/>
<line x1="210" y1="262" x2="262" y2="262" stroke-dasharray="5 4" marker-end="url(#a)"/>
<line x1="545" y1="284" x2="532" y2="328" stroke-dasharray="1.5 4" stroke-linecap="round" marker-end="url(#a)"/>
<line x1="135" y1="284" x2="135" y2="328" marker-end="url(#ah)"/>
</g>

<g>
<rect x="265" y="68" width="150" height="44" rx="10" fill="#E1F5EE" stroke="#0F6E56"/>
<text x="340" y="95" font-size="13" font-weight="500" fill="#04342C" text-anchor="middle">Home</text>

<rect x="60" y="150" width="150" height="44" rx="10" fill="#E1F5EE" stroke="#0F6E56"/>
<text x="135" y="170" font-size="13" font-weight="500" fill="#04342C" text-anchor="middle">Platform</text>
<text x="135" y="185" font-size="10" fill="#0F6E56" text-anchor="middle">pillar hub</text>

<rect x="265" y="150" width="150" height="44" rx="10" fill="#E1F5EE" stroke="#0F6E56"/>
<text x="340" y="170" font-size="13" font-weight="500" fill="#04342C" text-anchor="middle">CTV / OTT</text>
<text x="340" y="185" font-size="10" fill="#0F6E56" text-anchor="middle">channel hub</text>

<rect x="470" y="150" width="150" height="44" rx="10" fill="#E1F5EE" stroke="#0F6E56"/>
<text x="545" y="170" font-size="13" font-weight="500" fill="#04342C" text-anchor="middle">Legal</text>
<text x="545" y="185" font-size="10" fill="#0F6E56" text-anchor="middle">industry hub</text>

<rect x="60" y="240" width="150" height="44" rx="10" fill="#EEEDFE" stroke="#534AB7"/>
<text x="135" y="260" font-size="13" font-weight="500" fill="#26215C" text-anchor="middle">Measurement</text>
<text x="135" y="275" font-size="10" fill="#534AB7" text-anchor="middle">feature page</text>

<rect x="265" y="240" width="150" height="44" rx="10" fill="#EEEDFE" stroke="#534AB7"/>
<text x="340" y="260" font-size="13" font-weight="500" fill="#26215C" text-anchor="middle">Glossary</text>
<text x="340" y="275" font-size="10" fill="#534AB7" text-anchor="middle">definitions, AEO</text>

<rect x="470" y="240" width="150" height="44" rx="10" fill="#EEEDFE" stroke="#534AB7"/>
<text x="545" y="260" font-size="13" font-weight="500" fill="#26215C" text-anchor="middle">Case study</text>
<text x="545" y="275" font-size="10" fill="#534AB7" text-anchor="middle">proof</text>

<rect x="40" y="328" width="190" height="44" rx="10" fill="#EEEDFE" stroke="#534AB7"/>
<text x="135" y="348" font-size="13" font-weight="500" fill="#26215C" text-anchor="middle">External sources</text>
<text x="135" y="363" font-size="10" fill="#534AB7" text-anchor="middle">IAB, eMarketer (cited)</text>

<rect x="440" y="328" width="180" height="44" rx="10" fill="#EEEDFE" stroke="#534AB7"/>
<text x="530" y="348" font-size="13" font-weight="500" fill="#26215C" text-anchor="middle">Request a demo</text>
<text x="530" y="363" font-size="10" fill="#534AB7" text-anchor="middle">primary CTA</text>
</g>

<rect x="40" y="392" width="22" height="13" rx="4" fill="#E1F5EE" stroke="#0F6E56"/>
<text x="68" y="402" font-size="10.5" fill="#3a3f46">hub pages</text>
<rect x="160" y="392" width="22" height="13" rx="4" fill="#EEEDFE" stroke="#534AB7"/>
<text x="188" y="402" font-size="10.5" fill="#3a3f46">supporting and external pages</text>

<g stroke="#7a7f87" stroke-width="1.6" fill="none">
<line x1="40" y1="426" x2="68" y2="426" marker-end="url(#a)"/>
<line x1="370" y1="426" x2="398" y2="426" stroke-dasharray="1.5 4" stroke-linecap="round" marker-end="url(#a)"/>
<line x1="40" y1="450" x2="68" y2="450" stroke-dasharray="5 4" marker-end="url(#a)"/>
<line x1="370" y1="450" x2="398" y2="450" marker-end="url(#ah)"/>
</g>
<text x="76" y="430" font-size="10.5" fill="#3a3f46">internal link (hub, spoke, cross-cluster)</text>
<text x="406" y="430" font-size="10.5" fill="#3a3f46">CTA to request a demo</text>
<text x="76" y="454" font-size="10.5" fill="#3a3f46">glossary definition link</text>
<text x="406" y="454" font-size="10.5" fill="#3a3f46">outbound external citation</text>
</svg>